<?xml version="1.0" encoding="UTF-8"?>
<svg width="129px" height="139px" viewBox="0 0 129 139" version="1.1" xmlns="http://www.w3.org/2000/svg" xmlns:xlink="http://www.w3.org/1999/xlink">
    <!-- Generator: Sketch 49 (51002) - http://www.bohemiancoding.com/sketch -->
    <title>Group</title>
    <desc>Created with Sketch.</desc>
    <defs>
        <polygon id="path-1" points="0.000309183525 0.282 128.148 0.282 128.148 138.9998 0.000309183525 138.9998"></polygon>
    </defs>
    <g id="Page-1" stroke="none" stroke-width="1" fill="none" fill-rule="evenodd">
        <g id="Landing-davivienda" transform="translate(-619.000000, -584.000000)">
            <g id="Group" transform="translate(619.000000, 583.000000)">
                <g id="Group-6" transform="translate(0.000000, 0.718000)">
                    <g id="Group-3">
                        <mask id="mask-2" fill="white">
                            <use xlink:href="#path-1"></use>
                        </mask>
                        <g id="Clip-2"></g>
                        <path d="M65.7798,137.4658 L65.7748,137.5048 L65.2708,137.4868 C64.1598,137.4828 60.6408,137.7108 59.5338,137.6508 L1.9908,138.9998 L0.0338,78.8078 C-0.3482,56.9298 2.3608,35.6978 17.3578,19.7568 C42.2398,-6.6912 83.1158,-6.1312 108.6468,21.0068 C134.1838,48.1508 134.7078,91.5958 109.8258,118.0438 C97.7248,130.9058 81.8418,137.3318 65.7798,137.4658" id="Fill-1" fill="#E10B13" mask="url(#mask-2)"></path>
                    </g>
                    <path d="M24.2129,112.2051 C24.2129,112.4991 24.4359,112.7641 24.7149,112.7641 L31.5139,112.7641 C36.8909,112.7641 41.2939,108.1431 41.2939,102.4321 C41.2939,96.7801 36.8909,92.1591 31.5139,92.1591 L24.7149,92.1591 C24.4359,92.1591 24.2129,92.4241 24.2129,92.7181 L24.2129,112.2051 Z M28.5599,108.4081 L28.5599,96.4861 L31.2349,96.4861 C34.3839,96.4861 36.6679,99.1061 36.6679,102.4321 C36.6679,105.7881 34.3839,108.4081 31.2349,108.4081 L28.5599,108.4081 Z M43.2719,102.4911 C43.2719,108.3781 47.7579,113.0591 53.3309,113.0591 C55.8109,113.0591 58.2069,112.1461 60.1019,110.2031 C60.2969,109.9971 60.3249,109.6151 60.1299,109.4091 L57.9559,106.9651 C57.7889,106.7591 57.4269,106.7591 57.2319,106.9361 C56.2289,107.8481 54.8079,108.3491 53.4979,108.3491 C50.3489,108.3491 48.0089,105.6411 48.0089,102.3731 C48.0089,99.0761 50.3209,96.3091 53.4699,96.3091 C54.8349,96.3091 56.2009,96.8391 57.2319,97.8111 C57.4269,98.0171 57.7329,98.0171 57.9279,97.8111 L60.1019,95.4261 C60.3249,95.1911 60.3249,94.8381 60.0739,94.6021 C58.1789,92.7771 56.1169,91.8641 53.3309,91.8641 C47.7579,91.8641 43.2719,96.6041 43.2719,102.4911 Z M65.9529,112.2051 C65.9529,112.4991 66.2039,112.7641 66.4819,112.7641 L69.8259,112.7641 C70.1049,112.7641 70.3549,112.4991 70.3549,112.2051 L70.3549,96.4861 L74.3399,96.4861 C74.6459,96.4861 74.8689,96.2211 74.8689,95.9271 L74.8689,92.7181 C74.8689,92.4241 74.6459,92.1591 74.3399,92.1591 L61.9679,92.1591 C61.6619,92.1591 61.4389,92.4241 61.4389,92.7181 L61.4389,95.9271 C61.4389,96.2211 61.6619,96.4861 61.9679,96.4861 L65.9529,96.4861 L65.9529,112.2051 Z M76.1229,102.4911 C76.1229,108.3781 80.5529,113.0591 86.1259,113.0591 C91.6989,113.0591 96.1569,108.3781 96.1569,102.4911 C96.1569,96.6041 91.6989,91.8641 86.1259,91.8641 C80.5529,91.8641 76.1229,96.6041 76.1229,102.4911 Z M80.5809,102.4911 C80.5809,99.2531 83.0889,96.5741 86.1259,96.5741 C89.1909,96.5741 91.6989,99.2531 91.6989,102.4911 C91.6989,105.7001 89.1909,108.3491 86.1259,108.3491 C83.0889,108.3491 80.5809,105.7001 80.5809,102.4911 Z M96.9929,110.2921 C96.9929,111.7931 98.1909,113.0591 99.6119,113.0591 C101.0609,113.0591 102.2869,111.7931 102.2869,110.2921 C102.2869,108.7611 101.0609,107.4661 99.6119,107.4661 C98.1909,107.4661 96.9929,108.7611 96.9929,110.2921 Z" id="Fill-4" fill="#FFEC00"></path>
                </g>
                <path d="M26.4736,75.637016 C25.6806,74.722016 25.6196,74.295016 26.3516,73.563016 L29.4016,70.574016 C29.8286,70.208016 30.3776,70.086016 30.8656,70.513016 C31.1096,70.757016 34.6476,73.929016 38.7346,73.929016 C42.8826,73.929016 45.8106,70.574016 45.8106,66.731016 C45.8106,62.949016 43.2486,59.899016 38.4296,59.899016 L29.0356,59.899016 C27.8156,59.899016 27.1446,58.740016 27.1446,57.764016 L27.1446,39.769016 C27.1446,39.159016 27.6326,38.610016 28.3036,38.610016 L47.5796,38.610016 C48.2506,38.610016 48.7386,39.159016 48.7386,39.769016 L48.7386,43.917016 C48.7386,44.527016 48.2506,45.076016 47.5796,45.076016 L34.0376,45.076016 L34.0376,53.189016 L39.2836,53.189016 C47.9456,53.189016 53.2526,58.740016 53.2526,66.731016 C53.2526,74.356016 46.9086,80.700016 38.4906,80.700016 C31.9636,80.700016 27.9986,77.467016 26.4736,75.637016 Z" id="-5" fill="#FFEC00"></path>
                <path d="M62.3416,53.250016 C57.7666,53.250016 54.1066,49.590016 54.1066,45.015016 C54.1066,40.440016 57.7666,36.780016 62.3416,36.780016 C66.8556,36.780016 70.5766,40.440016 70.5766,45.015016 C70.5766,49.590016 66.8556,53.250016 62.3416,53.250016 Z M59.1086,78.443016 L80.0316,38.000016 C80.2146,37.634016 80.5806,37.390016 81.0686,37.390016 L84.1186,37.390016 C85.0336,37.390016 85.5826,38.244016 85.1556,39.037016 L64.1106,79.480016 C63.9886,79.724016 63.5616,80.090016 63.0736,80.090016 L60.1456,80.090016 C59.2306,80.090016 58.6816,79.236016 59.1086,78.443016 Z M62.3416,48.004016 C63.9276,48.004016 65.2696,46.662016 65.2696,45.015016 C65.2696,43.429016 63.9276,42.087016 62.3416,42.087016 C60.6946,42.087016 59.3526,43.429016 59.3526,45.015016 C59.3526,46.662016 60.6946,48.004016 62.3416,48.004016 Z M74.1756,72.465016 C74.1756,67.890016 77.8966,64.230016 82.4106,64.230016 C86.9856,64.230016 90.7066,67.890016 90.7066,72.465016 C90.7066,77.040016 86.9856,80.700016 82.4106,80.700016 C77.8966,80.700016 74.1756,77.040016 74.1756,72.465016 Z M79.4216,72.465016 C79.4216,74.112016 80.7636,75.454016 82.4106,75.454016 C83.9966,75.454016 85.3996,74.112016 85.3996,72.465016 C85.3996,70.879016 83.9966,69.537016 82.4106,69.537016 C80.7636,69.537016 79.4216,70.879016 79.4216,72.465016 Z" id="%" fill="#FFEC00"></path>
            </g>
        </g>
    </g>
</svg>