<?xml version="1.0" encoding="UTF-8"?>
<svg width="30px" height="15px" viewBox="0 0 30 15" version="1.1" xmlns="http://www.w3.org/2000/svg" xmlns:xlink="http://www.w3.org/1999/xlink">
    <!-- Generator: Sketch 50.2 (55047) - http://www.bohemiancoding.com/sketch -->
    <title>drag</title>
    <desc>Created with Sketch.</desc>
    <defs></defs>
    <g id="Page-1" stroke="none" stroke-width="1" fill="none" fill-rule="evenodd">
        <g id="Desktop-HD" transform="translate(-76.000000, -47.000000)" fill="#FFFFFF" fill-rule="nonzero">
            <g id="drag" transform="translate(76.000000, 47.000000)">
                <path d="M29.529635,6.35321168 C29.3428467,6.16642336 29.3428467,6.16642336 29.3428467,6.16642336 L23.7370073,0.560583942 C22.989635,-0.186788321 21.8684672,-0.186788321 21.1208759,0.560583942 C20.3735036,1.3079562 20.3735036,2.42912409 21.1208759,3.17671533 L23.55,5.60583942 L6.35868613,5.60583942 L8.78781022,3.17671533 C9.16160584,2.80291971 9.34839416,2.42934307 9.34839416,1.86875912 C9.34839416,1.30817518 9.16160584,0.934379562 8.78781022,0.56080292 C8.04043796,-0.186569343 6.91927007,-0.186569343 6.17167883,0.56080292 L0.565839416,6.16664234 C0.192043796,6.35343066 0.00525547445,6.9140146 0.00525547445,7.28781022 C0.00525547445,7.47459854 0.00525547445,7.47459854 0.00525547445,7.66160584 C0.00525547445,8.03540146 0.192043796,8.4089781 0.379051095,8.5959854 C0.565839416,8.78277372 0.565839416,8.78277372 0.565839416,8.78277372 L6.17167883,14.3886131 C6.91905109,15.1359854 8.04021898,15.1359854 8.78781022,14.3886131 C9.53540146,13.6412409 9.53518248,12.520073 8.78781022,11.7724818 L6.35868613,9.34335766 L23.55,9.34335766 L21.1208759,11.7722628 C20.7470803,12.1460584 20.560292,12.519635 20.560292,13.080219 C20.560292,13.6408029 20.7470803,14.0145985 21.1208759,14.3881752 C21.4946715,14.7617518 21.8682482,14.9487591 22.4288321,14.9487591 C22.9894161,14.9487591 23.3632117,14.7619708 23.7367883,14.3881752 L29.3426277,8.78233577 C29.7164234,8.59554745 29.9032117,8.0349635 29.9032117,7.66116788 C29.9032117,7.47437956 29.9032117,7.47437956 29.9032117,7.28737226 C29.9032117,6.91379562 29.7164234,6.54021898 29.529635,6.35321168 Z" id="Shape"></path>
            </g>
        </g>
    </g>
</svg>